<svg xmlns="http://www.w3.org/2000/svg" viewBox="0 0 78 59.841" height="62">
    <g transform="translate(-16.176 -14.28)">
        <path d="M20.931 16.88l20.486-.071 16.922 33.735.006 1.442-17.22.06-.025-6.095-2.922-2.167-17.161.06zm-2.248-2.465l.145 41.838 42.033-.145-.021-6.514-17.547-35.263z"
              transform="translate(1.527 .031)"></path>
        <path
                fill="#fecd07"
                d="M0 0H42.034V11.147H0z"
                transform="rotate(-.197 16379.594 -5891.641)"
        ></path>
        <path
                d="M45.687 14.3l.182 52.983L60 67.23l14.114-4.052-24.254.083-.168-48.98z"
                transform="translate(17.97 .001)"
        ></path>
        <path
                d="M24.995 56.91a7.712 7.712 0 117.686-7.739 7.721 7.721 0 01-7.686 7.739"
                transform="translate(.658 16.565)"
        ></path>
        <path
                fill="#fff"
                d="M25.19 42.378a7.064 7.064 0 11-7.041 7.089 7.065 7.065 0 017.041-7.089m0-1.3a8.359 8.359 0 108.389 8.331 8.367 8.367 0 00-8.389-8.331"
                transform="translate(.413 16.32)"
        ></path>
        <path
                d="M41.423 56.852a7.712 7.712 0 117.686-7.737 7.718 7.718 0 01-7.686 7.737"
                transform="translate(10.662 16.531)"
        ></path>
        <path
                fill="#fff"
                d="M41.618 42.321a7.065 7.065 0 11-7.039 7.089 7.067 7.067 0 017.039-7.089m0-1.3A8.36 8.36 0 1050 49.357a8.372 8.372 0 00-8.389-8.331"
                transform="translate(10.416 16.286)"
        ></path>
        <path
                fill="#fff"
                d="M39.578 50.19a2.878 2.878 0 112.869-2.89 2.879 2.879 0 01-2.869 2.888"
                transform="translate(12.491 18.36)"
        ></path>
        <path
                fill="#fff"
                d="M39.651 44.767a2.636 2.636 0 11-2.627 2.645 2.635 2.635 0 012.627-2.645m0-.484a3.12 3.12 0 103.131 3.11 3.123 3.123 0 00-3.131-3.11"
                transform="translate(12.399 18.269)"
        ></path>
        <path
                fill="#fff"
                d="M23.185 50.246a2.878 2.878 0 112.869-2.888 2.88 2.88 0 01-2.869 2.888"
                transform="translate(2.509 18.394)"
        ></path>
        <path
                fill="#fff"
                d="M23.259 44.823a2.636 2.636 0 11-2.629 2.645 2.638 2.638 0 012.629-2.645m0-.484a3.12 3.12 0 103.131 3.11 3.123 3.123 0 00-3.131-3.11"
                transform="translate(2.418 18.303)"
        ></path>
        <path
                d="M16.176 38.412a3.964 3.964 0 113.977 3.951 3.963 3.963 0 01-3.977-3.951"
                transform="translate(0 12.272)"
        ></path>
        <path
                fill="#fecd07"
                d="M23.585 36.866l-1.577-13.418 1.826-.006L26.1 33.09l8.008.5.011 3.237z"
                transform="translate(3.551 5.578)"
        ></path>
        <path
                fill="#deb306"
                d="M22.032 41.083c5.327-.019 10.221 2.232 11.219 9.969l-2.989.011c.806-6.576-3.461-9.652-8.23-9.98"
                transform="translate(3.566 16.32)"
        ></path>
        <path
                fill="#deb306"
                d="M42.681 41.026c-5.329.019-10.205 2.3-11.151 10.048l2.989-.011c-.851-6.568 3.4-9.674 8.162-10.036"
                transform="translate(9.349 16.286)"
        ></path>
        <path
                fill="#333"
                d="M18.756 35.529l17.944-.061 1.093.753.024 6.857 20.486-2.239-17.216.061-.021-6.1-2.922-2.168-19.4.067z"
                transform="translate(1.565 11.178)"
        ></path>
        <path
                fill="#fff"
                d="M40.256 42.667A6.794 6.794 0 0143 51.336a9.274 9.274 0 00-2.746-8.669"
                transform="translate(14.663 17.285)"
        ></path>
        <path
                fill="#fff"
                d="M23.713 42.724a6.789 6.789 0 012.746 8.667 9.271 9.271 0 00-2.746-8.667"
                transform="translate(4.589 17.32)"
        ></path>
        <path
                fill="#fff"
                d="M23.323 34.9l10.016-.034.817.581.022 6.272-.935-5.586-.391-.467z"
                transform="translate(4.352 12.536)"
        ></path>
        <path
                fill="#bf9a05"
                d="M22.751 23.444l1.909 11.635 9-.654v-.833l-8.008-.5-2.27-9.648z"
                transform="translate(4.004 5.579)"
        ></path>
        <path
                fill="#957552"
                d="M51.312 36.1l-.133-.126z"
                transform="translate(21.313 13.207)"
        ></path>
        <path
                fill="#957552"
                d="M51.007 24.922l-.116-.108z"
                transform="translate(21.139 6.412)"
        ></path>
        <path
                fill="#c69c6d"
                d="M0 0H18.211V18.211H0z"
                transform="rotate(-.197 12792.537 -20212.474)"
        ></path>
        <path
                fill="#957552"
                d="M0 0H3.912V3.955H0z"
                transform="rotate(-.197 12788.84 -22291.71)"
        ></path>
        <path
                fill="#957552"
                d="M0 0H3.912V3.956H0z"
                transform="rotate(-.197 16934.806 -22298.834)"
        ></path>
        <path
                fill="#c69c6d"
                d="M0 0H15.708V15.708H0z"
                transform="rotate(-.197 7783.058 -20203.926)"
        ></path>
        <path
                fill="#957552"
                d="M0 0H3.375V3.413H0z"
                transform="rotate(-.197 7779.742 -21996.973)"
        ></path>
        <path
                fill="#957552"
                d="M0 0H3.375V3.413H0z"
                transform="rotate(-.197 11355.656 -22003.332)"
        ></path>
        <path
                fill="#c69c6d"
                d="M0 0H10.287V10.286H0z"
                transform="rotate(-.197 4198.418 -20197.583)"
        ></path>
        <path
                fill="#957552"
                d="M0 0H2.21V2.234H0z"
                transform="translate(73.526 14.565)"
        ></path>
        <path
                fill="#957552"
                d="M0 0H2.21V2.234H0z"
                transform="rotate(-.197 6538.233 -21376.415)"
        ></path>
    </g>
</svg>